<svg version="1.2" xmlns="http://www.w3.org/2000/svg" viewBox="0 0 550 95" width="550" height="95">
	<style>
		.s0 { fill: #0076ff } 
		.s1 { fill: #52aeff } 
		.s2 { fill: #ff1a1a;paint-order:stroke fill markers;stroke: #000000;stroke-width: 6;stroke-linejoin: round; } 
	</style>
	<g>
		<path class="s0" d="m156.11 81.6q-7.5-16.2-14.5-33.9-6.9-17.7-12.9-35.4h13.9q2.4 7 4.9 14.3 2.5 7.3 5 14.4 2.5 7 5 13.6 2.5 6.6 4.9 12.1 2.3-5.5 4.8-12 2.5-6.6 5-13.7 2.6-7.1 5.1-14.4 2.5-7.3 4.8-14.3h13.5q-6.1 17.7-13 35.4-6.9 17.7-14.4 33.9z"/>
		<path class="s0" d="m219.32 28q6 0 10.1 1.5 4.1 1.5 6.5 4.2 2.5 2.7 3.5 6.6 1.1 3.8 1.1 8.4v31.7q-2.8 0.6-8.5 1.4-5.6 0.9-12.7 0.9-4.7 0-8.6-0.9-3.9-0.9-6.7-2.9-2.7-2-4.3-5.2-1.5-3.2-1.5-7.9 0-4.5 1.7-7.6 1.8-3.1 4.8-5 3-2 6.9-2.8 4-0.9 8.3-0.9 2 0 4.2 0.3 2.2 0.2 4.7 0.8v-2q0-2.1-0.5-4-0.5-1.9-1.8-3.3-1.2-1.5-3.3-2.3-2-0.8-5.1-0.8-4.2 0-7.7 0.6-3.5 0.6-5.7 1.4l-1.5-9.8q2.3-0.8 6.7-1.6 4.4-0.8 9.4-0.8zm1 45.1q5.6 0 8.5-0.6v-13.4q-1-0.3-2.9-0.6-1.9-0.3-4.2-0.3-2 0-4.1 0.3-2 0.3-3.7 1.1-1.6 0.8-2.6 2.3-1 1.4-1 3.6 0 4.3 2.7 6 2.7 1.6 7.3 1.6z"/>
		<path class="s0" d="m273.44 82.6q-5.4-0.1-9-1.2-3.5-1.1-5.6-3.1-2.1-2.1-3-5.1-0.8-3.1-0.8-7v-60.2l12.1-2v59.9q0 2.2 0.3 3.7 0.4 1.5 1.3 2.6 0.9 1 2.4 1.6 1.6 0.5 4 0.8z"/>
		<path class="s0" d="m282.03 55.7q0-6.9 2-12.1 2.1-5.2 5.5-8.6 3.4-3.5 7.8-5.2 4.4-1.8 9-1.8 10.8 0 16.8 6.7 6.1 6.7 6.1 20 0 1-0.1 2.3 0 1.2-0.1 2.2h-34.5q0.5 6.3 4.4 9.8 4 3.4 11.5 3.4 4.4 0 8-0.8 3.7-0.8 5.8-1.7l1.6 9.9q-1 0.5-2.8 1.1-1.7 0.5-4 0.9-2.2 0.5-4.8 0.8-2.6 0.3-5.3 0.3-6.9 0-12-2-5.1-2.1-8.4-5.7-3.3-3.7-4.9-8.6-1.6-5-1.6-10.9zm35.1-5.4q0-2.5-0.7-4.7-0.7-2.3-2.1-3.9-1.3-1.7-3.3-2.6-1.9-1-4.6-1-2.8 0-4.9 1.1-2.1 1-3.6 2.7-1.4 1.7-2.2 3.9-0.8 2.2-1.1 4.5z"/>
		<path class="s0" d="m341.36 15.5l12.1-2v15.8h18.6v10.1h-18.6v21.3q0 6.3 2 9 2 2.7 6.8 2.7 3.3 0 5.8-0.7 2.6-0.7 4.1-1.3l2 9.6q-2.1 0.9-5.5 1.8-3.4 1-8 1-5.6 0-9.4-1.5-3.7-1.5-5.9-4.3-2.2-2.9-3.1-6.9-0.9-4.1-0.9-9.3z"/>
		<path class="s0" d="m426.66 80q-3.5 0.9-9.1 1.8-5.6 1-12.3 1-6.3 0-10.6-1.8-4.2-1.8-6.8-5-2.5-3.2-3.6-7.6-1.1-4.5-1.1-9.8v-29.3h12.1v27.4q0 8.4 2.4 12 2.5 3.6 8.6 3.6 2.2 0 4.6-0.2 2.5-0.2 3.7-0.5v-42.3h12.1z"/>
		<path class="s0" d="m486.36 80q-3.6 1.1-9.1 2-5.4 0.9-11.4 0.9-6.2 0-11.1-1.9-4.9-1.9-8.4-5.4-3.4-3.6-5.3-8.6-1.8-5.1-1.8-11.4 0-6.2 1.5-11.2 1.6-5.1 4.6-8.7 3-3.6 7.3-5.5 4.3-2 9.9-2 3.8 0 6.7 0.9 2.9 0.9 5 2v-25.1l12.1-2zm-34.7-24.7q0 8 3.8 12.6 3.8 4.5 10.5 4.5 2.9 0 4.9-0.2 2.1-0.3 3.4-0.6v-30q-1.6-1.1-4.3-2-2.6-1-5.6-1-6.6 0-9.7 4.5-3 4.5-3 12.2z"/>
		<path class="s0" d="m549.03 55.4q0 6.2-1.8 11.3-1.8 5.1-5.1 8.7-3.3 3.6-8 5.6-4.6 2-10.2 2-5.6 0-10.2-2-4.6-2-7.9-5.6-3.3-3.6-5.2-8.7-1.8-5.1-1.8-11.3 0-6.2 1.8-11.2 1.9-5.1 5.2-8.7 3.4-3.6 8-5.5 4.6-2 10.1-2 5.5 0 10.1 2 4.7 1.9 8 5.5 3.3 3.6 5.1 8.7 1.9 5 1.9 11.2zm-12.4 0q0-7.8-3.4-12.3-3.3-4.6-9.3-4.6-6 0-9.4 4.6-3.3 4.5-3.3 12.3 0 7.9 3.3 12.5 3.4 4.6 9.4 4.6 6 0 9.3-4.6 3.4-4.6 3.4-12.5z"/>
	</g>
	<g>
		<path class="s0" d="m47.36 90.08c-3.06-4.86-3.48-5.49-4.31-6.47-0.54-0.64-2.36-2.45-3.13-3.13-3.16-2.77-6.35-5.07-12.59-9.08-2.51-1.61-5.31-3.69-7.54-5.6-1.67-1.43-4.21-3.9-5.6-5.43-9.01-9.95-13.69-21.68-13.7-34.26 0-7.19 1.5-14.19 4.46-20.73 0.94-2.1 2.77-5.46 2.92-5.38 0.72 0.42 11.87 7.26 11.87 7.28 0 0.02-0.21 0.41-0.48 0.87-3.97 6.93-5.52 15.07-4.39 22.99 1.41 9.9 7.24 19.02 16.7 26.12 1.35 1.03 2.26 1.65 4.04 2.8 3.75 2.4 5.91 3.88 8.53 5.83 2.35 1.75 3.85 2.98 6.09 5.01l0.26 0.24 0.19-0.17c4.63-4.19 7.97-6.6 15.02-11.13 7.83-5.02 13.57-11.11 17.04-18.04 3-5.99 4.21-12.5 3.57-19.14-0.5-5.18-2.05-10.08-4.62-14.55-0.24-0.44-0.45-0.81-0.45-0.83 0-0.02 0.45-0.3 0.99-0.63 1.15-0.7 10.69-6.52 10.84-6.62 0.1-0.06 0.12-0.03 0.51 0.62 4.56 7.77 6.91 16.45 6.91 25.49 0 12-4.34 23.38-12.59 32.98-1.73 2.01-4.11 4.4-6.13 6.18-2.74 2.4-5.32 4.32-9.03 6.69-8.15 5.24-13.01 9.18-15.63 12.65-0.22 0.29-1.79 2.74-3.49 5.44-1.7 2.71-3.11 4.92-3.13 4.92-0.02 0-1.43-2.21-3.13-4.92z"/>
		<path class="s1" d="m49.34 57.65c-3.58-1.63-7.41-3.82-10.59-6.04-4.42-3.09-7.69-6.23-9.84-9.46q-3.2-4.8-3-9.8c0.16-3.82 0.97-7 2.61-10.28 0.83-1.67 1.67-2.99 2.79-4.39 4-5.01 9.8-8.26 16.11-9.05 1.77-0.23 4.19-0.24 5.89-0.04 7.54 0.9 14.11 5.1 18.12 11.58 0.57 0.92 1.51 2.8 1.91 3.8 1.06 2.7 1.61 5.36 1.73 8.42 0.25 6.22-3.51 12.27-11.23 18.05-2.82 2.11-5.69 3.91-9.17 5.74-1.41 0.74-4.01 1.96-4.18 1.95-0.03 0-0.56-0.21-1.15-0.48zm2.08-8.98c3.12-1.67 6.14-3.62 8.54-5.54 3.97-3.17 6.36-6.31 6.86-9.01 0.12-0.62 0.08-2.4-0.08-3.4-0.72-4.76-3.27-8.77-7.25-11.42q-3.08-2.05-6.97-2.59c-0.91-0.12-3.14-0.12-4.03 0-2.05 0.29-3.57 0.75-5.35 1.64-4.57 2.29-7.84 6.64-8.8 11.72-0.25 1.35-0.33 3.23-0.17 4.08 0.81 4.32 6.52 9.73 15.25 14.43 0.57 0.31 1.06 0.57 1.07 0.57 0.01 0 0.43-0.22 0.93-0.48z"/>
		<path class="s1" d="m49.54 41.71c-1.65-0.18-3.34-0.86-4.71-1.9-0.52-0.39-1.48-1.34-1.86-1.86-0.89-1.2-1.54-2.68-1.8-4.13-0.12-0.63-0.16-2.2-0.08-2.84 0.35-2.84 1.88-5.33 4.23-6.89 1.18-0.79 2.36-1.25 3.8-1.5 0.69-0.13 2.01-0.13 2.75 0 4.18 0.69 7.38 3.97 7.99 8.18 0.1 0.68 0.1 2.01 0.01 2.69-0.4 2.76-1.91 5.17-4.25 6.73-1.76 1.17-4.06 1.75-6.08 1.52z"/>
	</g>
	<path id="No Code of Conduct" class="s2" aria-label="No Code of Conduct"  d="m50.4 54.2l-10.2-0.6 2.4-42.6 10.8 0.6 3.7 20.7 1.1-20.4 10.2 0.6-2.5 42.6-10.2-0.6-4-21.6zm32.9 2.4q-13.4-0.8-12.7-12.1l0.8-14.5q0.3-5.2 4-8 3.7-2.9 10-2.5 6.3 0.4 9.7 3.7 3.3 3.3 3 8.4l-0.8 14.6q-0.6 11.2-14 10.4zm0.4-6.7q1.3 0.1 1.9-0.6 0.7-0.8 0.7-2l1-17.7q0.2-3.2-2.3-3.4-2.5-0.1-2.7 3l-1 17.8q0 1.2 0.5 2 0.5 0.8 1.9 0.9zm43.6 9.4q-5.7-0.3-9-3.4-3.3-3.1-3-8.3l1.1-19.6q0.4-6.2 3.6-9.4 3.2-3.1 10-2.6 3.7 0.2 6.6 1.5 2.8 1.3 4.4 3.6 1.5 2.3 1.3 5.7l-0.4 7.3-10.4-0.6 0.3-6.3q0.1-1.9-0.4-2.6-0.6-0.7-1.8-0.8-1.5-0.1-2 0.8-0.6 0.8-0.7 2.2l-1.2 21.3q-0.1 1.8 0.5 2.6 0.6 0.7 1.8 0.8 1.3 0.1 1.9-0.8 0.6-0.8 0.7-2.3l0.5-7.6 10.5 0.6-0.5 8.1q-0.3 5.6-3.9 7.9-3.6 2.3-9.9 1.9zm29.5 1.8q-13.3-0.8-12.7-12l0.9-14.6q0.3-5.1 4-8 3.7-2.8 10-2.4 6.2 0.4 9.6 3.6 3.4 3.3 3.1 8.4l-0.8 14.6q-0.7 11.3-14.1 10.4zm0.4-6.6q1.4 0 2-0.7 0.6-0.8 0.7-2l1-17.7q0.2-3.2-2.3-3.3-2.5-0.2-2.7 3l-1 17.7q-0.1 1.2 0.4 2.1 0.6 0.8 1.9 0.9zm25.7 8.3q-3.1-0.2-4.8-1.3-1.8-1-2.6-2.7-0.8-1.7-1-3.8-0.1-2.2 0-4.7l0.9-15.8q0.3-4.2 2.2-6.7 2-2.5 6.4-2.2 3.3 0.2 4.9 1.5 1.7 1.2 2.6 3.2l0.5-10.1 10.9 0.7-2.4 42.6-10.9-0.7 0.2-3.9q-1 1.9-2.5 3-1.6 1-4.4 0.9zm4.5-6.6q1.5 0.1 2.1-0.8 0.6-1 0.7-3.6l0.9-15.2q0.1-1.3-0.3-2.6-0.4-1.3-2-1.4-1.7-0.1-2.2 1.1-0.5 1.1-0.6 2.6l-0.9 15.2q-0.2 4.6 2.3 4.7zm29.7 8.7q-4.8-0.3-7.5-2-2.8-1.6-3.9-4.4-1-2.8-0.8-6.7l0.8-14.5q0.3-5.1 4-7.5 3.8-2.4 10-2 12.9 0.8 12.3 11.1l-0.1 2.6q-0.3 4.8-0.5 6.4l-15.5-0.9-0.4 7q-0.1 1 0 1.9 0.1 1 0.6 1.6 0.5 0.6 1.6 0.7 1.7 0.1 2.2-1 0.5-1.2 0.6-3.1l0.2-3.5 10.6 0.7-0.1 2q-0.3 4.1-1.7 6.8-1.3 2.7-4.4 3.9-3 1.2-8 0.9zm-0.8-27.1l-0.2 4.9 5 0.3 0.3-4.9q0.1-2-0.4-2.8-0.6-1-1.8-1-1.3-0.1-2 0.7-0.7 0.8-0.9 2.8zm45.3 29.8q-13.3-0.8-12.7-12.1l0.9-14.5q0.3-5.2 4-8 3.7-2.9 10-2.5 6.2 0.4 9.6 3.7 3.4 3.3 3.1 8.4l-0.8 14.6q-0.7 11.2-14.1 10.4zm0.4-6.7q1.4 0.1 2-0.6 0.6-0.8 0.7-2l1-17.7q0.2-3.2-2.3-3.4-2.5-0.1-2.7 3.1l-1 17.7q-0.1 1.2 0.4 2 0.6 0.9 1.9 0.9zm28.5 8.1l-10.5-0.6 1.6-28.1-2-0.2 0.4-6.6 1.9 0.1 0.2-2.4q0.3-5.9 7.5-5.4 3.4 0.2 5.5 1l-0.3 5.4q-0.8-0.2-1-0.2-0.9-0.1-1.2 0.5-0.2 0.5-0.3 1.3v0.5l2.3 0.1-0.3 6.7-2.2-0.1zm32.3 2.4q-5.7-0.4-9.1-3.5-3.2-3.1-2.9-8.2l1.1-19.7q0.3-6.2 3.5-9.3 3.2-3.1 10.1-2.7 3.7 0.3 6.5 1.5 2.9 1.3 4.4 3.7 1.6 2.3 1.4 5.6l-0.4 7.4-10.5-0.6 0.4-6.3q0.1-2-0.5-2.6-0.5-0.8-1.8-0.8-1.4-0.1-2 0.7-0.5 0.8-0.6 2.3l-1.2 21.3q-0.1 1.8 0.4 2.5 0.7 0.8 1.8 0.9 1.4 0 2-0.8 0.6-0.9 0.7-2.3l0.4-7.7 10.6 0.7-0.5 8q-0.3 5.6-3.9 8-3.7 2.3-9.9 1.9zm29.5 1.8q-13.4-0.8-12.7-12.1l0.8-14.5q0.3-5.2 4-8 3.7-2.9 10-2.5 6.3 0.4 9.7 3.7 3.3 3.3 3 8.4l-0.8 14.6q-0.6 11.2-14 10.4zm0.4-6.7q1.3 0.1 1.9-0.6 0.7-0.8 0.7-2l1-17.7q0.2-3.2-2.3-3.4-2.5-0.1-2.7 3l-1 17.8q0 1.2 0.5 2 0.5 0.8 1.9 0.9zm27.6 8l-10.7-0.6 2.1-36.3 10.7 0.6-0.3 4.7q0.7-2.1 2.4-3.4 1.7-1.4 4.6-1.2 4.7 0.3 6.6 2.7 2 2.5 1.8 6.5l-1.6 28-10.5-0.6 1.5-27.1q0.1-1.1-0.4-2-0.5-1-1.8-1.1-1.2-0.1-1.9 0.6-0.6 0.7-0.8 1.7-0.2 1-0.2 2zm28.5 2.2q-3.1-0.2-4.9-1.3-1.8-1-2.6-2.7-0.8-1.6-0.9-3.8-0.2-2.2 0-4.7l0.9-15.8q0.2-4.2 2.2-6.7 2-2.5 6.3-2.2 3.3 0.2 5 1.5 1.7 1.2 2.5 3.3l0.6-10.2 10.8 0.7-2.4 42.6-10.9-0.7 0.3-3.9q-1 1.9-2.6 3-1.5 1-4.3 0.9zm4.4-6.6q1.6 0.1 2.1-0.8 0.6-1 0.8-3.6l0.8-15.2q0.1-1.3-0.3-2.6-0.4-1.3-1.9-1.4-1.8-0.1-2.3 1.1-0.5 1.2-0.6 2.6l-0.9 15.2q-0.2 4.6 2.3 4.7zm25.8 8.4q-3.6-0.2-5.4-1.5-1.8-1.3-2.4-3.5-0.5-2.3-0.4-5.2l1.6-27 10.7 0.7-1.5 26q-0.1 2.2 0.2 3.1 0.4 0.8 2 0.9 1.6 0.1 2.1-1.1 0.5-1.1 0.6-3.1l1.5-25.5 10.6 0.6-2 36.3-10.7-0.6 0.2-3.9q-1.1 2-2.6 3-1.5 1-4.5 0.8zm35.3 2.2q-7.5-0.5-10.5-3.8-3-3.3-2.6-9.3l0.6-11.2q0.3-4.6 1.6-7.5 1.4-3 4.5-4.3 3-1.3 8.3-1 3.7 0.2 6.6 1.5 2.9 1.2 4.5 3.4 1.6 2.2 1.4 5.1l-0.3 5.6-10.9-0.7 0.3-5.1q0-1.2-0.3-2.1-0.4-0.9-1.9-1-2.7-0.2-2.8 2.9l-1 17.6q-0.1 1.1 0.4 2.1 0.6 0.9 2 1 1.4 0.1 1.9-0.8 0.7-0.9 0.7-2.1l0.4-6.1 10.8 0.7-0.4 6.3q-0.1 3-1.9 5.1-1.8 2-4.7 3-3 0.9-6.7 0.7zm25.7 1.6q-4.3-0.3-5.8-1.8-1.4-1.6-1.2-4.7l1.3-22.6-3-0.2 0.4-6.6 3 0.1 0.4-7.6 10.4 0.6-0.5 7.7 3.1 0.2-0.4 6.6-3-0.2-1.2 20.6q-0.1 0.9 0.3 1.3 0.3 0.4 1.3 0.4 0.7 0.1 1.3 0l-0.3 5.9q-0.4 0.1-2.3 0.3-1.9 0.1-3.8 0z"/>
</svg>